<?xml version="1.0" encoding="UTF-8" standalone="no"?>
<svg
   width="1024px"
   height="1024px"
   viewBox="0 0 1024 1024"
   class="icon"
   version="1.1"
   id="svg4"
   sodipodi:docname="dingtalk.svg"
   inkscape:version="1.1.2 (0a00cf5339, 2022-02-04)"
   xmlns:inkscape="http://www.inkscape.org/namespaces/inkscape"
   xmlns:sodipodi="http://sodipodi.sourceforge.net/DTD/sodipodi-0.dtd"
   xmlns="http://www.w3.org/2000/svg"
   xmlns:svg="http://www.w3.org/2000/svg">
  <defs
     id="defs8" />
  <sodipodi:namedview
     id="namedview6"
     pagecolor="#ffffff"
     bordercolor="#666666"
     borderopacity="1.0"
     inkscape:pageshadow="2"
     inkscape:pageopacity="0.0"
     inkscape:pagecheckerboard="0"
     showgrid="false"
     inkscape:zoom="0.81054688"
     inkscape:cx="513.23373"
     inkscape:cy="512"
     inkscape:window-width="1920"
     inkscape:window-height="1000"
     inkscape:window-x="0"
     inkscape:window-y="32"
     inkscape:window-maximized="1"
     inkscape:current-layer="svg4" />
  <path
     style="fill:#0089ff;fill-opacity:1"
     d="M 512,64 C 264.6,64 64,264.6 64,512 64,759.4 264.6,960 512,960 759.4,960 960,759.4 960,512 960,264.6 759.4,64 512,64 Z"
     id="path2" />
  <path
     style="fill:#ffffff;fill-opacity:1"
     d="m 739,449.3 c -1,4.2 -3.5,10.4 -7,17.8 h 0.1 l -0.4,0.7 c -20.3,43.1 -73.1,127.7 -73.1,127.7 0,0 -0.1,-0.2 -0.3,-0.5 l -15.5,26.8 h 74.5 L 575.1,810 607.4,682 h -58.6 l 20.4,-84.7 c -16.5,3.9 -35.9,9.4 -59,16.8 0,0 -31.2,18.2 -89.9,-35 0,0 -39.6,-34.7 -16.6,-43.4 9.8,-3.7 47.4,-8.4 77,-12.3 40,-5.4 64.6,-8.2 64.6,-8.2 0,0 -123.3,1.8 -152.6,-2.7 -29.3,-4.6 -66.4,-53.1 -74.3,-95.8 0,0 -12.2,-23.4 26.3,-12.3 38.5,11.1 197.9,43.2 197.9,43.2 0,0 -207.4,-63.3 -221.2,-78.7 -13.8,-15.4 -40.6,-84.2 -37.1,-126.5 0,0 1.5,-10.5 12.4,-7.7 0,0 153.3,69.7 258.1,107.9 104.8,37.9 195.9,57.3 184.2,106.7 z"
     id="path1040" />
</svg>
