<?xml version="1.0" standalone="no"?>
<!DOCTYPE svg PUBLIC "-//W3C//DTD SVG 20010904//EN"
 "http://www.w3.org/TR/2001/REC-SVG-20010904/DTD/svg10.dtd">
<svg version="1.0" xmlns="http://www.w3.org/2000/svg"
 width="1024.000000pt" height="1024.000000pt" viewBox="0 0 1024.000000 1024.000000"
 preserveAspectRatio="xMidYMid meet">

<g transform="translate(0.000000,1024.000000) scale(0.100000,-0.100000)"
fill="#000000" stroke="none">
<path d="M5680 9135 c0 -24 -2 -25 -75 -25 -73 0 -75 -1 -75 -25 0 -24 -3 -25
-55 -25 -52 0 -55 -1 -55 -25 0 -23 -3 -25 -50 -25 -47 0 -50 -2 -50 -25 0
-21 -5 -25 -30 -25 -27 0 -30 -3 -30 -30 0 -29 -1 -30 -50 -30 -47 0 -50 -2
-50 -25 0 -24 -3 -25 -55 -25 -52 0 -55 -1 -55 -25 0 -24 -2 -25 -75 -25 -73
0 -75 -1 -75 -25 0 -25 -1 -25 -80 -25 -79 0 -80 0 -80 25 l0 25 -315 0 -315
0 0 -25 c0 -25 -1 -25 -80 -25 l-80 0 0 -30 c0 -29 -1 -30 -50 -30 -47 0 -50
-2 -50 -25 0 -20 -5 -25 -25 -25 -20 0 -25 -5 -25 -25 0 -21 -5 -25 -30 -25
-25 0 -30 -4 -30 -25 0 -20 -5 -25 -25 -25 -21 0 -25 -5 -25 -30 0 -25 -4 -30
-25 -30 -23 0 -25 -3 -25 -50 0 -47 -2 -50 -25 -50 -24 0 -25 -3 -25 -55 0
-54 0 -55 -30 -55 l-30 0 0 -130 0 -130 -25 0 -25 0 0 -235 0 -235 -25 0 c-20
0 -25 -5 -25 -25 0 -20 -5 -25 -25 -25 -21 0 -25 -5 -25 -30 l0 -30 -80 0
c-79 0 -80 0 -80 -25 l0 -25 -130 0 -130 0 0 -25 c0 -25 -1 -25 -80 -25 -79 0
-80 0 -80 -25 0 -25 -1 -25 -80 -25 l-80 0 0 -30 0 -30 -80 0 c-79 0 -80 0
-80 -25 0 -23 -3 -25 -50 -25 -47 0 -50 -2 -50 -25 0 -23 -3 -25 -50 -25 -47
0 -50 -2 -50 -25 0 -21 -5 -25 -30 -25 -27 0 -30 -3 -30 -30 0 -29 -1 -30 -50
-30 -47 0 -50 -2 -50 -25 0 -20 -5 -25 -25 -25 -20 0 -25 -5 -25 -25 0 -21 -5
-25 -30 -25 -25 0 -30 -4 -30 -25 0 -20 -5 -25 -25 -25 -21 0 -25 -5 -25 -30
0 -29 -1 -30 -50 -30 -47 0 -50 -2 -50 -25 0 -21 -5 -25 -30 -25 -25 0 -30 -4
-30 -25 0 -20 -5 -25 -25 -25 -24 0 -25 -3 -25 -55 0 -52 -1 -55 -25 -55 -20
0 -25 -5 -25 -25 0 -20 -5 -25 -25 -25 -20 0 -25 -5 -25 -25 0 -21 -5 -25 -30
-25 -25 0 -30 -4 -30 -25 0 -20 -5 -25 -25 -25 -24 0 -25 -3 -25 -55 0 -52 -1
-55 -25 -55 -20 0 -25 -5 -25 -25 0 -20 -5 -25 -25 -25 -23 0 -25 -3 -25 -50
0 -49 -1 -50 -30 -50 -30 0 -30 -1 -30 -55 0 -52 -1 -55 -25 -55 -23 0 -25 -3
-25 -50 0 -47 -2 -50 -25 -50 -25 0 -25 -1 -25 -80 0 -79 0 -80 -25 -80 l-25
0 0 -105 0 -105 -30 0 -30 0 0 -130 0 -130 -25 0 -25 0 0 -290 0 -290 25 0 25
0 0 -160 0 -160 30 0 30 0 0 -75 c0 -73 1 -75 25 -75 25 0 25 -1 25 -80 0 -79
0 -80 25 -80 23 0 25 -3 25 -50 0 -47 2 -50 25 -50 24 0 25 -3 25 -55 0 -54 0
-55 30 -55 29 0 30 -1 30 -50 0 -47 2 -50 25 -50 21 0 25 -5 25 -30 0 -25 4
-30 25 -30 23 0 25 -3 25 -50 0 -47 2 -50 25 -50 20 0 25 -5 25 -25 0 -21 5
-25 30 -25 27 0 30 -3 30 -30 0 -25 4 -30 25 -30 23 0 25 -3 25 -50 0 -47 2
-50 25 -50 20 0 25 -5 25 -25 0 -20 5 -25 25 -25 21 0 25 -5 25 -30 0 -27 3
-30 30 -30 25 0 30 -4 30 -25 0 -23 3 -25 50 -25 47 0 50 -2 50 -25 0 -20 5
-25 25 -25 20 0 25 -5 25 -25 0 -21 5 -25 30 -25 27 0 30 -3 30 -30 0 -25 4
-30 25 -30 20 0 25 -5 25 -25 0 -23 3 -25 50 -25 47 0 50 -2 50 -25 0 -21 5
-25 30 -25 25 0 30 -4 30 -25 0 -23 3 -25 50 -25 49 0 50 -1 50 -30 0 -29 1
-30 50 -30 47 0 50 -2 50 -25 0 -21 5 -25 30 -25 25 0 30 -4 30 -25 0 -23 3
-25 50 -25 47 0 50 -2 50 -25 0 -20 5 -25 25 -25 21 0 25 -5 25 -30 0 -27 3
-30 30 -30 25 0 30 -4 30 -25 0 -20 5 -25 25 -25 20 0 25 -5 25 -25 0 -20 5
-25 25 -25 20 0 25 -5 25 -25 0 -20 5 -25 25 -25 24 0 25 -3 25 -55 0 -54 0
-55 30 -55 29 0 30 -1 30 -50 0 -47 2 -50 25 -50 24 0 25 -3 25 -55 0 -52 1
-55 25 -55 20 0 25 -5 25 -25 0 -20 5 -25 25 -25 24 0 25 -3 25 -55 0 -54 0
-55 30 -55 29 0 30 -1 30 -50 0 -47 2 -50 25 -50 20 0 25 -5 25 -25 0 -20 5
-25 25 -25 21 0 25 -5 25 -30 0 -25 4 -30 25 -30 20 0 25 -5 25 -25 0 -21 5
-25 30 -25 29 0 30 -1 30 -50 0 -47 2 -50 25 -50 20 0 25 -5 25 -25 0 -20 5
-25 25 -25 21 0 25 -5 25 -30 0 -25 4 -30 25 -30 20 0 25 -5 25 -25 0 -24 3
-25 55 -25 52 0 55 -1 55 -25 0 -20 5 -25 25 -25 20 0 25 -5 25 -25 0 -20 5
-25 25 -25 21 0 25 -5 25 -30 0 -27 3 -30 30 -30 25 0 30 -4 30 -25 0 -23 3
-25 50 -25 47 0 50 -2 50 -25 0 -24 3 -25 55 -25 52 0 55 -1 55 -25 0 -23 3
-25 50 -25 49 0 50 -1 50 -30 0 -30 1 -30 55 -30 52 0 55 -1 55 -25 0 -23 3
-25 50 -25 47 0 50 -2 50 -25 0 -25 1 -25 80 -25 79 0 80 0 80 -25 l0 -25 130
0 130 0 0 -30 0 -30 365 0 365 0 0 30 0 30 135 0 135 0 0 25 c0 24 2 25 75 25
73 0 75 1 75 25 0 24 3 25 55 25 52 0 55 1 55 25 0 25 1 25 80 25 l80 0 0 30
c0 25 4 30 25 30 20 0 25 5 25 25 0 23 3 25 50 25 47 0 50 2 50 25 0 24 3 25
55 25 52 0 55 1 55 25 0 20 5 25 25 25 21 0 25 5 25 30 0 25 4 30 25 30 20 0
25 5 25 25 0 24 3 25 55 25 52 0 55 1 55 25 0 20 5 25 25 25 20 0 25 5 25 25
0 20 5 25 25 25 21 0 25 5 25 30 0 27 3 30 30 30 25 0 30 4 30 25 0 20 5 25
25 25 23 0 25 3 25 50 0 47 2 50 25 50 20 0 25 5 25 25 0 20 5 25 25 25 21 0
25 5 25 30 0 27 3 30 30 30 25 0 30 4 30 25 0 20 5 25 25 25 23 0 25 3 25 50
0 47 2 50 25 50 24 0 25 3 25 55 0 52 1 55 25 55 23 0 25 3 25 50 0 47 2 50
25 50 24 0 25 3 25 55 0 54 0 55 30 55 29 0 30 1 30 50 0 47 2 50 25 50 25 0
25 1 25 80 0 79 0 80 25 80 24 0 25 3 25 55 0 52 1 55 25 55 23 0 25 3 25 50
0 49 1 50 30 50 25 0 30 4 30 25 0 20 5 25 25 25 21 0 25 5 25 30 0 25 4 30
25 30 20 0 25 5 25 25 0 25 1 25 80 25 79 0 80 0 80 25 0 25 1 25 80 25 79 0
80 0 80 25 0 24 2 25 75 25 l75 0 0 30 c0 30 1 30 55 30 52 0 55 1 55 25 0 23
3 25 50 25 47 0 50 2 50 25 0 21 5 25 30 25 25 0 30 4 30 25 0 23 3 25 50 25
49 0 50 1 50 30 0 25 4 30 25 30 20 0 25 5 25 25 0 21 5 25 30 25 25 0 30 4
30 25 0 20 5 25 25 25 20 0 25 5 25 25 0 20 5 25 25 25 21 0 25 5 25 30 0 25
4 30 25 30 23 0 25 3 25 50 0 49 1 50 30 50 25 0 30 4 30 25 0 20 5 25 25 25
24 0 25 3 25 55 0 52 1 55 25 55 23 0 25 3 25 50 0 47 2 50 25 50 24 0 25 3
25 55 0 54 0 55 30 55 l30 0 0 80 c0 79 0 80 25 80 24 0 25 2 25 75 0 73 1 75
25 75 l25 0 0 130 0 130 25 0 25 0 0 395 0 395 -25 0 -25 0 0 130 0 130 -25 0
c-25 0 -25 1 -25 80 0 79 0 80 -25 80 -24 0 -25 3 -25 55 0 54 0 55 -30 55
l-30 0 0 75 c0 73 -1 75 -25 75 -24 0 -25 3 -25 55 0 52 -1 55 -25 55 -20 0
-25 5 -25 25 0 20 -5 25 -25 25 -24 0 -25 3 -25 55 0 54 0 55 -30 55 -25 0
-30 4 -30 25 0 20 -5 25 -25 25 -20 0 -25 5 -25 25 0 20 -5 25 -25 25 -23 0
-25 3 -25 50 0 47 -2 50 -25 50 -21 0 -25 5 -25 30 0 27 -3 30 -30 30 -25 0
-30 4 -30 25 0 20 -5 25 -25 25 -20 0 -25 5 -25 25 0 20 -5 25 -25 25 -20 0
-25 5 -25 25 0 20 -5 25 -25 25 -21 0 -25 5 -25 30 0 27 -3 30 -30 30 -25 0
-30 4 -30 25 0 23 -3 25 -50 25 -47 0 -50 2 -50 25 0 20 -5 25 -25 25 -20 0
-25 5 -25 25 0 24 -3 25 -55 25 -54 0 -55 0 -55 30 0 25 -4 30 -25 30 -20 0
-25 5 -25 25 0 24 -3 25 -55 25 -52 0 -55 1 -55 25 0 23 -3 25 -50 25 -47 0
-50 2 -50 25 0 25 -1 25 -80 25 l-80 0 0 30 0 30 -80 0 c-79 0 -80 0 -80 25
l0 25 -130 0 -130 0 0 25 0 25 -180 0 -180 0 0 25 c0 25 -1 25 -80 25 l-80 0
0 30 c0 25 -4 30 -25 30 l-25 0 0 105 0 105 25 0 c24 0 25 2 25 75 0 73 1 75
25 75 24 0 25 3 25 55 0 52 1 55 25 55 l25 0 0 130 0 130 30 0 30 0 0 105 0
105 -30 0 -30 0 0 105 0 105 -25 0 c-24 0 -25 3 -25 55 0 52 -1 55 -25 55 -23
0 -25 3 -25 50 0 47 -2 50 -25 50 -20 0 -25 5 -25 25 0 21 -5 25 -30 25 -27 0
-30 3 -30 30 0 25 -4 30 -25 30 -20 0 -25 5 -25 25 0 20 -5 25 -25 25 -20 0
-25 5 -25 25 0 24 -3 25 -55 25 -52 0 -55 1 -55 25 0 23 -3 25 -50 25 -47 0
-50 2 -50 25 l0 25 -265 0 -265 0 0 -25z m437 -385 c80 -37 161 -114 201 -188
60 -112 63 -262 8 -368 -37 -73 27 8 -704 -893 -242 -298 -355 -439 -425 -528
-40 -51 -78 -92 -86 -93 -15 0 -60 39 -196 170 -49 47 -270 255 -490 462 -220
207 -412 389 -426 404 -15 16 -40 54 -55 84 -27 52 -29 62 -29 180 0 121 1
127 32 185 56 105 137 175 251 214 84 28 164 27 253 -4 90 -31 114 -50 364
-285 113 -107 209 -194 211 -193 5 2 294 357 515 633 116 144 165 189 247 225
102 44 229 43 329 -5z m-2348 -1853 c371 -68 757 -277 999 -543 74 -80 144
-214 163 -311 7 -38 10 -111 7 -185 -4 -108 -9 -133 -36 -202 -87 -219 -257
-367 -481 -416 -109 -25 -164 -25 -274 0 -118 26 -225 84 -327 177 -124 112
-227 156 -370 157 -254 0 -466 -187 -512 -453 -21 -125 12 -261 93 -382 51
-75 107 -122 206 -171 74 -37 91 -41 175 -46 169 -8 271 29 408 152 155 138
284 191 465 190 122 0 189 -16 290 -67 158 -79 270 -207 333 -382 34 -94 43
-288 18 -385 -24 -91 -77 -195 -135 -265 -28 -33 -68 -81 -90 -107 -86 -104
-129 -280 -102 -422 33 -178 172 -339 349 -403 86 -31 225 -32 315 -2 168 56
299 197 347 372 24 86 25 151 5 249 -21 99 -52 160 -124 243 -194 224 -256
313 -345 492 -106 211 -165 423 -192 678 -14 135 -14 181 -5 295 23 259 65
432 156 640 265 601 845 1034 1470 1100 55 5 126 13 158 16 84 10 370 -24 497
-58 318 -85 587 -237 819 -462 172 -167 294 -336 391 -541 95 -199 138 -344
170 -561 42 -286 11 -600 -87 -884 -40 -116 -134 -307 -199 -406 -81 -123
-204 -274 -267 -327 -209 -179 -474 -216 -716 -101 -82 38 -107 57 -181 132
-99 101 -147 187 -180 322 -25 107 -25 202 0 307 31 130 76 213 176 325 60 67
118 173 134 244 26 114 11 262 -38 359 -77 154 -209 254 -383 291 -82 17 -90
17 -165 0 -171 -37 -294 -128 -370 -272 -47 -88 -64 -155 -64 -248 0 -153 49
-268 172 -403 225 -245 335 -444 443 -793 83 -270 83 -738 -1 -1014 -63 -209
-143 -379 -254 -544 -309 -459 -763 -740 -1324 -817 -75 -10 -363 -7 -431 5
-33 6 -87 15 -120 21 -33 5 -98 21 -145 35 -436 130 -800 406 -1053 800 -139
215 -253 535 -274 765 l-8 83 -75 12 c-287 43 -528 136 -760 292 -445 301
-731 758 -815 1306 -16 103 -23 422 -11 457 3 8 13 61 21 119 48 323 211 668
440 931 210 241 510 445 780 532 152 49 183 57 281 72 54 9 101 18 103 21 13
13 441 -3 530 -19z"/>
</g>
</svg>
